<?xml version="1.0" encoding="UTF-8"?>
<svg version="1.1" xmlns="http://www.w3.org/2000/svg" width="1254" height="1254">
<path d="M0 0 C413.82 0 827.64 0 1254 0 C1254 413.82 1254 827.64 1254 1254 C840.18 1254 426.36 1254 0 1254 C0 840.18 0 426.36 0 0 Z " fill="#000000" transform="translate(0,0)"/>
<path d="M0 0 C3.13802093 2.62014019 4.30907686 5.61928844 5.86328125 9.3515625 C6.26602013 10.30950714 6.26602013 10.30950714 6.67689514 11.2868042 C7.56222559 13.39676344 8.43726349 15.51083613 9.3125 17.625 C9.93168225 19.10530369 10.55164893 20.5852795 11.17236328 22.06494141 C12.46672071 25.1520697 13.75764997 28.24059951 15.04638672 31.33007812 C17.82743007 37.98851938 20.65420932 44.62748687 23.47885132 51.26751709 C24.95427787 54.73729427 26.42655924 58.20840392 27.8984375 61.6796875 C28.17376816 62.32902252 28.44909882 62.97835754 28.73277283 63.64736938 C31.13211476 69.30800911 33.5191734 74.97374398 35.8996582 80.64233398 C37.94367634 85.50477236 40.00180171 90.36111483 42.06640625 95.21484375 C48.20187143 109.64222711 54.29864658 124.08395552 60.3125 138.5625 C65.58504566 151.25539756 70.92420272 163.91831956 76.3125 176.5625 C87.54434944 202.92195373 98.58699376 229.36083444 109.58325195 255.81933594 C112.09350548 261.85092491 114.63802442 267.86740514 117.19311523 273.88012695 C121.68312831 284.44716028 126.06401956 295.0462223 130.296875 305.71875 C133.41504041 313.57955552 136.72037892 321.3572772 140.0625 329.125 C143.3894594 336.87376003 146.49933638 344.6823378 149.5 352.5625 C151.84221563 358.66797062 154.42159099 364.61397407 157.18359375 370.5390625 C159.4931747 375.53236212 161.62181096 380.53812571 163.5625 385.6875 C165.17518465 389.96111432 166.92794014 394.0136833 169.0390625 398.05859375 C170.52765059 401.06602578 171.71501067 404.18160929 172.9375 407.3046875 C174.06965409 410.17669605 175.24751903 413.02648305 176.4375 415.875 C176.85902344 416.88433594 177.28054688 417.89367187 177.71484375 418.93359375 C178.55891847 420.94757143 179.40520416 422.96062419 180.25390625 424.97265625 C182.45101678 430.20026406 184.56126601 435.44397594 186.5625 440.75 C188.17863541 444.99740587 189.93851367 449.03394219 192.0390625 453.05859375 C193.52765059 456.06602578 194.71501067 459.18160929 195.9375 462.3046875 C197.88097343 467.2348223 199.95428807 472.11162701 202 477 C203.17916635 479.83561431 204.35773657 482.67147243 205.53515625 485.5078125 C206.69757774 488.27902532 207.87373289 491.04306269 209.05859375 493.8046875 C209.41977295 494.65087646 209.78095215 495.49706543 210.15307617 496.36889648 C210.87200344 498.05236717 211.59469044 499.73423832 212.3215332 501.41430664 C213.95725694 505.25427026 215.42720766 508.83040872 216 513 C199.65307115 512.37247874 183.48922464 509.07640566 167.6875 505 C166.76404785 504.76321533 165.8405957 504.52643066 164.88916016 504.2824707 C162.24130232 503.57376379 159.62361352 502.79319123 157 502 C156.10708252 501.77763672 155.21416504 501.55527344 154.29418945 501.32617188 C150.38321156 500.14763009 147.79929002 499.15322056 145.42700195 495.73046875 C144.02022755 492.70106992 142.89733929 489.65911227 141.8125 486.5 C141.13325691 484.68856116 140.45384098 482.87718053 139.76890564 481.06788635 C139.28159366 479.77505083 138.79900276 478.48042729 138.32081604 477.18418884 C135.60343386 469.82474436 132.57180938 462.60135318 129.53198242 455.3704834 C128.5532873 453.04056792 127.57969364 450.70857911 126.60742188 448.37597656 C122.89570546 439.47739532 119.13074746 430.60347697 115.3125 421.75 C102.57370268 392.19634237 90.40064926 362.3968769 78.08105469 332.66674805 C71.07804377 315.76780794 64.04867669 298.8799417 57 282 C56.6583783 281.181828 56.31675659 280.36365601 55.96478271 279.52069092 C46.93317951 257.89274714 37.86600042 236.28001488 28.75 214.6875 C28.35171997 213.74391632 27.95343994 212.80033264 27.54309082 211.82815552 C23.96928056 203.36305216 20.39258107 194.8995223 16.765625 186.45703125 C15.03941474 182.43887549 13.33250572 178.41424237 11.65625 174.375 C7.99635787 165.55851864 4.23950262 156.78292135 0.5 148 C-0.62517316 145.35732037 -1.75019962 142.7145793 -2.87451172 140.0715332 C-3.59667277 138.37440639 -4.31963788 136.67762147 -5.04345703 134.98120117 C-6.58190727 131.36942343 -8.10912787 127.75551433 -9.57421875 124.11328125 C-10.23357422 122.47939453 -10.23357422 122.47939453 -10.90625 120.8125 C-11.45249023 119.42998047 -11.45249023 119.42998047 -12.00976562 118.01953125 C-12.82877615 115.83303055 -12.82877615 115.83303055 -15 115 C-17.85702181 120.38579006 -20.36484986 125.78593152 -22.5 131.5 C-24.28768112 136.28022568 -26.28051742 140.79653595 -28.69140625 145.29296875 C-30.27410875 148.56703691 -31.57743875 151.92078255 -32.9128418 155.30200195 C-34.7054248 159.75065112 -36.67354584 164.11929103 -38.625 168.5 C-43.7541098 180.08779052 -48.76432515 191.72488758 -53.75 203.375 C-54.13622528 204.27743439 -54.52245056 205.17986877 -54.92037964 206.10964966 C-56.86970633 210.66506489 -58.81815112 215.2208566 -60.76611328 219.77685547 C-63.76227362 226.78368503 -66.76477861 233.78779234 -69.76757812 240.79177856 C-71.30229495 244.37151168 -72.83674216 247.95136033 -74.37109375 251.53125 C-74.67191864 252.23310928 -74.97274353 252.93496857 -75.28268433 253.65809631 C-77.08838161 257.87146077 -78.89279942 262.08537062 -80.69621277 266.29971313 C-93.78977497 296.89738459 -106.98614043 327.45064756 -120.22583008 357.98535156 C-124.42720419 367.67522213 -128.62105289 377.36833194 -132.8125 387.0625 C-133.14709229 387.83634033 -133.48168457 388.61018066 -133.82641602 389.4074707 C-136.21777491 394.9382428 -138.60891404 400.4691099 -141 406 C-149.60831382 425.91213966 -158.21850858 445.82344076 -166.84765625 465.7265625 C-169.00359498 470.6995318 -171.15696742 475.6736017 -173.30859375 480.6484375 C-178.99419941 493.79110639 -184.70426538 506.92229322 -190.48681641 520.02270508 C-191.11595947 521.44812622 -191.11595947 521.44812622 -191.7578125 522.90234375 C-192.1202002 523.72210693 -192.48258789 524.54187012 -192.85595703 525.38647461 C-194.25527874 528.58317519 -195.62539684 531.79259264 -197 535 C-200.465 542.92 -200.465 542.92 -204 551 C-217.53 551 -231.06 551 -245 551 C-242.17375814 542.52127443 -238.95731899 534.85773741 -234.9375 526.9375 C-232.96767155 523.04205372 -231.27725921 519.21747481 -229.8359375 515.10546875 C-228.76691646 512.41293445 -227.45135089 509.88777521 -226.125 507.3125 C-223.3934473 501.97139944 -221.2096303 496.55041804 -219.17578125 490.91015625 C-218.01937638 488.04795816 -216.59116603 485.63851583 -215 483 C-213.16171634 478.89737214 -211.48439616 474.7364409 -209.80883789 470.56518555 C-206.34402617 461.98629917 -202.55697107 453.57962439 -198.67285156 445.18359375 C-194.44143225 436.01598842 -190.33740792 426.79500459 -186.25 417.5625 C-181.060961 405.84666015 -175.82040986 394.15676942 -170.5 382.5 C-164.89866451 370.22584149 -159.38598626 357.9145915 -153.92034912 345.57943726 C-149.64267268 335.9259081 -145.33315524 326.28829763 -140.96948242 316.67333984 C-134.79376612 303.06498205 -128.76295118 289.39599572 -122.76916504 275.706604 C-117.50719356 263.68969748 -112.20058992 251.69562159 -106.82080078 239.73095703 C-96.8511768 217.55794166 -87.00893683 195.32898309 -77.25 173.0625 C-70.70449162 158.12896565 -64.11954068 143.21337038 -57.5 128.3125 C-57.09479126 127.39953156 -56.68958252 126.48656311 -56.27209473 125.54592896 C-51.34352354 114.44407731 -46.3692516 103.36466553 -41.31384277 92.31990051 C-39.20545519 87.70303812 -37.15915094 83.07785369 -35.25 78.375 C-33.67433178 74.49685886 -31.91257586 70.78622725 -30 67.0625 C-27.36136121 61.89965318 -25.29821142 56.64903075 -23.28125 51.21875 C-21.60852097 47.01652829 -19.55060933 43.06592319 -17.4765625 39.05078125 C-15.40410451 34.76879795 -13.80421629 30.34255658 -12.1484375 25.88671875 C-11.00727488 23.01828617 -9.65949703 20.56162937 -8.0390625 17.953125 C-5.99750106 14.1156035 -4.63677309 9.96695814 -3.1484375 5.890625 C-2 3 -2 3 0 0 Z " fill="#FBFBFB" transform="translate(548,329)"/>
<path d="M0 0 C0.79981293 0.00021149 1.59962585 0.00042297 2.42367554 0.00064087 C18.00815666 0.04137174 33.02223843 1.60774605 48.375 4.375 C49.41366211 4.55160156 50.45232422 4.72820312 51.52246094 4.91015625 C77.25242858 9.3392868 101.1121262 18.7435631 124.375 30.375 C124.375 51.165 124.375 71.955 124.375 93.375 C121.97962434 90.97962434 120.63394011 89.3604938 118.9921875 86.53125 C118.55181152 85.78488281 118.11143555 85.03851563 117.65771484 84.26953125 C117.19316895 83.47933594 116.72862305 82.68914062 116.25 81.875 C111.80400368 74.46451524 107.12894313 67.84301162 101.375 61.375 C100.65828125 60.53839844 99.9415625 59.70179688 99.203125 58.83984375 C79.08529525 35.7614114 53.19276046 21.66069391 23.375 15.375 C22.42753906 15.16875 21.48007812 14.9625 20.50390625 14.75 C-10.73091067 9.13475201 -44.0728597 14.08475545 -70.83203125 31.45703125 C-73.49350302 33.36120326 -76.0716477 35.3288793 -78.625 37.375 C-79.26695312 37.86484375 -79.90890625 38.3546875 -80.5703125 38.859375 C-92.88436672 48.68853039 -103.1295114 65.76259944 -105.625 81.375 C-106.65241965 94.03657113 -106.86493843 106.60237516 -101.625 118.375 C-101.274375 119.22449219 -100.92375 120.07398438 -100.5625 120.94921875 C-79.13283946 168.34746099 -12.99106219 194.04367701 30.9375 214.875 C66.57503394 231.79045448 100.69128575 250.98088053 129.375 278.375 C130.76332031 279.68404297 130.76332031 279.68404297 132.1796875 281.01953125 C145.74171675 294.13973802 158.75347229 310.50880588 165.375 328.375 C165.80554688 329.48746094 166.23609375 330.59992188 166.6796875 331.74609375 C169.03789601 338.04131138 170.7786001 343.69532116 171.375 350.375 C171.8692749 351.77915161 171.8692749 351.77915161 172.37353516 353.21166992 C177.01948561 367.88684789 173.89899886 386.91303642 169.375 401.375 C169.00454681 402.73704711 168.63872936 404.10036277 168.27734375 405.46484375 C163.24421206 423.78988025 152.29429073 438.64973517 139.375 452.375 C138.58416016 453.26251953 138.58416016 453.26251953 137.77734375 454.16796875 C107.66633832 486.5892815 56.00348677 498.82033393 13.64381409 500.48214722 C10.84553217 500.53780671 8.04880622 500.56567563 5.25 500.578125 C4.22302002 500.58382507 3.19604004 500.58952515 2.13793945 500.59539795 C-0.02342725 500.60477988 -2.18480782 500.61135455 -4.34619141 500.61523438 C-7.58913286 500.62489317 -10.8314266 500.65596396 -14.07421875 500.6875 C-26.19343143 500.74809954 -37.67389196 499.98333456 -49.58105469 497.72775269 C-52.9968699 497.13823692 -56.42792189 496.79794009 -59.875 496.4375 C-66.53303615 495.63853566 -72.67705077 494.20552934 -79.12109375 492.37109375 C-82.21448796 491.49170075 -85.30601031 490.7279529 -88.4375 490 C-130.85564071 479.46702039 -174.22006451 455.22884395 -197.4921875 417.07421875 C-203.39793533 407.02487917 -207.44099483 396.61796027 -210.6796875 385.4453125 C-211.31575512 382.52833499 -211.31575512 382.52833499 -212.625 381.375 C-215.97995267 366.80422018 -214.81225423 351.21849909 -214.625 336.375 C-212.66639589 338.85612681 -211.15026844 341.1401773 -209.96875 344.0703125 C-209.67427979 344.77720215 -209.37980957 345.4840918 -209.07641602 346.21240234 C-208.76244873 346.96730957 -208.44848145 347.7222168 -208.125 348.5 C-201.88312743 362.98114435 -193.42043348 376.05056369 -183.625 388.375 C-182.65433594 389.65117188 -182.65433594 389.65117188 -181.6640625 390.953125 C-170.00795051 405.86937559 -156.04280853 418.47555943 -140.625 429.375 C-139.70219238 430.03290527 -139.70219238 430.03290527 -138.76074219 430.70410156 C-87.33203374 467.06417053 -19.82678715 488.09660937 43.30151367 477.92138672 C69.57884947 472.94685348 93.1893965 461.54758023 108.54296875 439.22265625 C119.79916858 421.12403852 122.47163947 399.30524556 117.90356445 378.57006836 C111.59467218 352.36995268 94.04440339 332.71444932 73.375 316.375 C72.38628906 315.5809375 71.39757812 314.786875 70.37890625 313.96875 C44.95041367 293.90532015 15.64697708 279.00949579 -12.89302063 263.9535675 C-34.38885445 252.61321469 -55.82422779 241.21403473 -76.625 228.625 C-77.59332764 228.04008789 -78.56165527 227.45517578 -79.55932617 226.85253906 C-80.44724854 226.30823242 -81.3351709 225.76392578 -82.25 225.203125 C-83.02601563 224.7277832 -83.80203125 224.25244141 -84.6015625 223.76269531 C-88.60498239 221.01710667 -90.1727565 218.5562227 -91.96484375 214.03125 C-92.39651855 212.95746094 -92.82819336 211.88367188 -93.27294922 210.77734375 C-93.71912598 209.65457031 -94.16530273 208.53179688 -94.625 207.375 C-95.51918888 205.19670478 -96.41636416 203.01963328 -97.31640625 200.84375 C-97.77917969 199.7199292 -98.24195313 198.5961084 -98.71875 197.43823242 C-103.11220917 186.7795661 -107.55661117 176.14771291 -112.125 165.5625 C-118.6953838 150.32977616 -125.0530714 135.0088389 -131.41992188 119.69018555 C-131.83097168 118.70254715 -132.24202148 117.71490875 -132.66552734 116.69734192 C-133.47692983 114.74268133 -134.28460014 112.78646695 -135.08837891 110.82865906 C-137.00692029 106.17119299 -138.98036819 101.56148871 -141.11914062 97.00048828 C-141.50745056 96.15051773 -141.8957605 95.30054718 -142.2958374 94.42481995 C-143.01991058 92.84801117 -143.76652023 91.28125511 -144.54058838 89.7283783 C-146.45012079 85.51193971 -146.87711139 83.02240412 -145.4309082 78.55541992 C-133.34537228 48.42502126 -107.35833021 27.74626865 -78.3125 15.0625 C-76.08833485 14.15432008 -73.85951687 13.25740338 -71.625 12.375 C-70.73941406 12.00761719 -69.85382813 11.64023437 -68.94140625 11.26171875 C-61.0704366 8.15885552 -52.88294791 6.49696185 -44.62207031 4.7890625 C-43.00358559 4.45349403 -41.3880172 4.10388048 -39.7734375 3.75 C-26.54620406 0.91875271 -13.48643105 -0.03326419 0 0 Z " fill="#FBFAFB" transform="translate(776.625,388.625)"/>
<path d="M0 0 C1.43661437 0.00138269 1.43661437 0.00138269 2.90225124 0.00279331 C3.99746593 0.00141865 5.09268063 0.00004398 6.22108364 -0.00137234 C7.43308437 0.00222294 8.64508511 0.00581821 9.89381313 0.00952244 C11.16192333 0.00937641 12.43003353 0.00923038 13.73657131 0.00907993 C17.22401821 0.00879198 20.711431 0.01468838 24.19886994 0.02165389 C27.83973123 0.02788776 31.48059321 0.02849125 35.12145901 0.0296793 C42.02046371 0.03279252 48.91945264 0.04100578 55.81845039 0.05102879 C63.67080084 0.06219022 71.52315203 0.06770045 79.37550843 0.07272422 C95.53257953 0.0831884 111.68963475 0.10078766 127.84669399 0.12304783 C128.81155979 2.14077034 129.76827797 4.1623899 130.72169399 6.18554783 C131.25536587 7.31089939 131.78903774 8.43625095 132.33888149 9.59570408 C133.84669399 13.12304783 133.84669399 13.12304783 135.84669399 20.12304783 C87.66669399 20.12304783 39.48669399 20.12304783 -10.15330601 20.12304783 C-9.2662941 15.68798829 -7.95389897 11.9668488 -6.15330601 7.87304783 C-5.88002476 7.23625095 -5.60674351 6.59945408 -5.32518101 5.94336033 C-2.81533795 0.16087877 -2.81533795 0.16087877 0 0 Z " fill="#F5F5F5" transform="translate(464.15330600738525,661.8769521713257)"/>
<path d="M0 0 C0.99 0.33 1.98 0.66 3 1 C3 11.23 3 21.46 3 32 C1.515 32.495 1.515 32.495 0 33 C0 22.11 0 11.22 0 0 Z " fill="#EFEFEF" transform="translate(898,418)"/>
<path d="M0 0 C0 0.33 0 0.66 0 1 C-8.80763536 3.64936907 -17.49372812 3.0044701 -26.5625 2.625 C-28.15946694 2.56665147 -29.75647254 2.50935085 -31.35351562 2.453125 C-35.2362284 2.31416914 -39.118142 2.16101485 -43 2 C-43 1.67 -43 1.34 -43 1 C-38.16198967 0.8560845 -33.32393686 0.71372522 -28.48583984 0.57275391 C-26.84292389 0.52467014 -25.20001991 0.47617489 -23.55712891 0.42724609 C-21.18395029 0.35664151 -18.81073127 0.28755922 -16.4375 0.21875 C-15.71320801 0.19687622 -14.98891602 0.17500244 -14.24267578 0.15246582 C-9.49309465 0.01664638 -4.75155127 -0.01870689 0 0 Z " fill="#5B5B5A" transform="translate(801,888)"/>
<path d="M0 0 C2.50037734 2.17424117 3.43628586 3.73045798 4 7 C2.8553125 7.2165625 2.8553125 7.2165625 1.6875 7.4375 C-1.08172908 7.9632594 -1.08172908 7.9632594 -4 9 C-2.94124926 5.59687262 -1.99097846 2.98646769 0 0 Z " fill="#D1D1D2" transform="translate(548,329)"/>
<path d="M0 0 C0.66 0.99 1.32 1.98 2 3 C1.25 5.375 1.25 5.375 0 8 C-0.37125 8.928125 -0.7425 9.85625 -1.125 10.8125 C-1.41375 11.534375 -1.7025 12.25625 -2 13 C-2.99 13 -3.98 13 -5 13 C-3.58192622 8.52761347 -1.88695626 4.28853694 0 0 Z " fill="#D3D3D5" transform="translate(513,407)"/>
<path d="M0 0 C1.1875 1.625 1.1875 1.625 2 4 C0.8125 7.1875 0.8125 7.1875 -1 10 C-1.99 10.33 -2.98 10.66 -4 11 C-3.52269162 9.5410574 -3.04308958 8.08286504 -2.5625 6.625 C-2.29566406 5.81289063 -2.02882813 5.00078125 -1.75390625 4.1640625 C-1 2 -1 2 0 0 Z " fill="#D4D4D5" transform="translate(335,806)"/>
<path d="M0 0 C0.99 0.33 1.98 0.66 3 1 C2.34 1.66 1.68 2.32 1 3 C0.62690101 4.65821773 0.29299023 6.32577014 0 8 C-0.33 8.66 -0.66 9.32 -1 10 C-1.99 10 -2.98 10 -4 10 C-3.52449439 8.51965236 -3.04448784 7.04074979 -2.5625 5.5625 C-2.29566406 4.73878906 -2.02882813 3.91507812 -1.75390625 3.06640625 C-1 1 -1 1 0 0 Z " fill="#202020" transform="translate(528,453)"/>
<path d="M0 0 C0.66 0.66 1.32 1.32 2 2 C1.625 4.125 1.625 4.125 1 6 C0.34 6 -0.32 6 -1 6 C-1.33 7.98 -1.66 9.96 -2 12 C-2.66 11.67 -3.32 11.34 -4 11 C-3.52269162 9.5410574 -3.04308958 8.08286504 -2.5625 6.625 C-2.29566406 5.81289063 -2.02882813 5.00078125 -1.75390625 4.1640625 C-1 2 -1 2 0 0 Z " fill="#1B1B1B" transform="translate(368,823)"/>
<path d="M0 0 C0.99 0 1.98 0 3 0 C3 2.97 3 5.94 3 9 C-0.55555556 5.44444444 -0.55555556 5.44444444 -1 2 C-0.67 1.34 -0.34 0.68 0 0 Z " fill="#E3E4E3" transform="translate(898,473)"/>
<path d="M0 0 C2.96052484 3.36423277 3.92289822 6.69159287 5 11 C3.68 10.67 2.36 10.34 1 10 C1.33 8.35 1.66 6.7 2 5 C1.34 5 0.68 5 0 5 C0 3.35 0 1.7 0 0 Z " fill="#D5D5D5" transform="translate(562,725)"/>
<path d="M0 0 C1.32 1.65 2.64 3.3 4 5 C3.67 5.66 3.34 6.32 3 7 C2.38125 6.814375 1.7625 6.62875 1.125 6.4375 C-1.04160178 5.76313824 -1.04160178 5.76313824 -3 7 C-1.125 2.25 -1.125 2.25 0 0 Z " fill="#29292A" transform="translate(533,442)"/>
<path d="M0 0 C0.66 0.66 1.32 1.32 2 2 C1.625 4.125 1.625 4.125 1 6 C0.34 6 -0.32 6 -1 6 C-1.33 6.99 -1.66 7.98 -2 9 C-2.33 8.34 -2.66 7.68 -3 7 C-2.06421005 4.64018187 -1.06652192 2.30368736 0 0 Z " fill="#CBCBCC" transform="translate(306,871)"/>
<path d="M0 0 C0.66 0.99 1.32 1.98 2 3 C0.68 5.64 -0.64 8.28 -2 11 C-2.66 11 -3.32 11 -4 11 C-3.52269162 9.5410574 -3.04308958 8.08286504 -2.5625 6.625 C-2.29566406 5.81289063 -2.02882813 5.00078125 -1.75390625 4.1640625 C-1 2 -1 2 0 0 Z " fill="#C1C1C2" transform="translate(519,393)"/>
<path d="M0 0 C0 0.33 0 0.66 0 1 C-1.41199578 1.39222105 -2.82992764 1.76311059 -4.25 2.125 C-5.03890625 2.33382812 -5.8278125 2.54265625 -6.640625 2.7578125 C-9.4203071 3.04314411 -10.65887549 2.44977894 -13 1 C-8.59085217 -0.10228696 -4.51617599 -0.07654536 0 0 Z " fill="#3E3E3E" transform="translate(801,888)"/>
<path d="M0 0 C0.66 0.33 1.32 0.66 2 1 C0.125 6.75 0.125 6.75 -1 9 C-1.66 9 -2.32 9 -3 9 C-2.01 6.03 -1.02 3.06 0 0 Z " fill="#191919" transform="translate(385,784)"/>
<path d="M0 0 C0.66 0.99 1.32 1.98 2 3 C1.125 6.1875 1.125 6.1875 0 9 C-0.99 9 -1.98 9 -3 9 C-2.01 6.03 -1.02 3.06 0 0 Z " fill="#CDCDCE" transform="translate(499,438)"/>
<path d="M0 0 C0.6875 1.6875 0.6875 1.6875 1 4 C-1.26153846 8.63076923 -1.26153846 8.63076923 -4 10 C-2.8905928 6.51329166 -1.73662334 3.22515763 0 0 Z " fill="#292929" transform="translate(359,844)"/>
<path d="M0 0 C0.66 0.66 1.32 1.32 2 2 C1.625 4.625 1.625 4.625 1 7 C0.01 7 -0.98 7 -2 7 C-1.34 4.69 -0.68 2.38 0 0 Z " fill="#CFCFD0" transform="translate(346,781)"/>
</svg>
